<?xml version="1.0" standalone="no"?>
<!DOCTYPE svg PUBLIC "-//W3C//DTD SVG 20010904//EN"
 "http://www.w3.org/TR/2001/REC-SVG-20010904/DTD/svg10.dtd">
<svg version="1.0" xmlns="http://www.w3.org/2000/svg"
 width="351.000000pt" height="348.000000pt" viewBox="0 0 351.000000 348.000000"
 preserveAspectRatio="xMidYMid meet">

<g transform="translate(0.000000,348.000000) scale(0.100000,-0.100000)"
fill="#000000" stroke="none">
<path d="M1695 2954 c-261 -67 -441 -162 -594 -315 -214 -214 -318 -452 -328
-754 -4 -89 -1 -165 7 -210 27 -153 122 -360 226 -497 221 -287 582 -445 937
-409 189 19 380 88 510 184 210 155 370 385 432 625 27 101 39 276 27 387 -17
165 -92 362 -196 519 -49 72 -182 214 -244 260 -110 79 -263 150 -417 191 -59
16 -318 30 -360 19z m360 -98 c44 -14 85 -26 92 -26 32 0 132 -47 210 -99 240
-158 410 -422 462 -715 6 -33 11 -118 11 -188 0 -206 -31 -320 -134 -493 -71
-118 -177 -240 -267 -305 -68 -49 -220 -130 -245 -130 -6 0 -56 -14 -110 -31
-89 -28 -112 -31 -229 -31 -124 0 -136 2 -264 41 -162 50 -201 67 -281 121
-80 55 -165 140 -241 242 -136 184 -209 394 -209 602 0 236 64 432 202 618 66
90 230 244 309 290 67 40 283 114 371 128 91 15 235 4 323 -24z"/>
<path d="M1649 2791 c-76 -41 -159 -118 -224 -210 -59 -85 -155 -261 -155
-286 0 -15 50 -20 165 -18 87 1 79 -7 110 116 31 125 114 347 146 390 11 16
19 30 17 32 -2 3 -29 -9 -59 -24z"/>
<path d="M1970 2816 c0 -4 11 -23 25 -44 57 -86 119 -263 155 -444 l11 -58 48
0 c26 0 83 3 125 7 77 6 77 6 71 32 -19 77 -128 260 -206 345 -61 67 -229 185
-229 162z"/>
<path d="M1771 2779 c-39 -39 -79 -115 -121 -234 -30 -85 -70 -235 -70 -262 0
-10 29 -13 113 -13 l114 0 6 262 c3 145 2 267 -2 271 -5 5 -23 -6 -40 -24z"/>
<path d="M1870 2540 l0 -270 115 0 c63 0 115 4 115 8 0 4 -16 73 -35 152 -49
198 -136 380 -182 380 -10 0 -13 -52 -13 -270z"/>
<path d="M2196 2743 c36 -38 86 -96 110 -129 45 -64 142 -243 162 -301 l11
-33 100 0 c55 0 102 4 105 8 12 19 -120 201 -208 287 -88 86 -230 187 -310
220 -35 15 -34 13 30 -52z"/>
<path d="M1420 2735 c-140 -88 -343 -293 -400 -405 l-19 -37 95 -7 c53 -4 97
-6 99 -4 1 2 23 46 48 98 52 109 153 265 228 351 28 32 47 59 42 58 -4 0 -46
-24 -93 -54z"/>
<path d="M952 2167 c-24 -73 -52 -215 -52 -262 0 -32 1 -32 54 -38 29 -3 81
-3 114 0 l60 6 7 61 c7 69 43 264 50 276 8 13 -36 20 -126 20 l-86 0 -21 -63z"/>
<path d="M1231 2169 c-16 -75 -41 -244 -41 -279 l0 -30 148 0 149 0 7 123 c4
67 10 148 13 180 l6 57 -136 0 -135 0 -11 -51z"/>
<path d="M2267 2213 l-98 -4 6 -42 c4 -23 10 -100 13 -172 l7 -130 143 -3 142
-3 0 74 c0 65 -21 219 -36 270 -4 13 -15 16 -42 15 -20 -1 -81 -4 -135 -5z"/>
<path d="M2505 2201 c14 -46 35 -192 35 -251 0 -36 4 -71 8 -78 6 -9 37 -12
118 -10 l109 3 -2 81 c-1 81 -19 172 -47 239 l-15 35 -106 0 c-99 0 -106 -1
-100 -19z"/>
<path d="M1566 2154 c-3 -31 -9 -110 -13 -175 l-6 -119 132 0 131 0 0 175 0
175 -119 0 -118 0 -7 -56z"/>
<path d="M1870 2035 l0 -175 132 0 131 0 -6 166 c-4 91 -9 170 -13 175 -3 5
-59 9 -125 9 l-119 0 0 -175z"/>
<path d="M898 1758 c5 -61 45 -206 70 -258 l17 -35 103 -3 c95 -2 103 -1 98
15 -19 66 -38 170 -44 243 l-7 85 -121 3 -121 3 5 -53z"/>
<path d="M1190 1776 c0 -43 27 -197 46 -262 14 -48 17 -52 52 -58 20 -3 79 -6
131 -6 l94 0 -6 48 c-4 26 -9 107 -13 180 l-7 132 -148 0 -149 0 0 -34z"/>
<path d="M1554 1683 c3 -71 9 -152 13 -180 l6 -53 118 0 119 0 0 180 0 180
-132 0 -131 0 7 -127z"/>
<path d="M1870 1631 l0 -179 65 -7 c35 -3 89 -3 119 0 44 6 55 11 60 29 4 11
10 92 13 179 l6 157 -132 0 -131 0 0 -179z"/>
<path d="M2189 1708 c0 -57 -4 -137 -7 -179 l-7 -76 80 -6 c44 -3 102 -3 128
0 41 5 50 10 58 32 18 45 30 123 37 229 l7 102 -147 0 -148 0 -1 -102z"/>
<path d="M2537 1708 c-3 -57 -13 -136 -21 -177 -9 -41 -15 -75 -14 -76 2 -1
47 -5 100 -7 l97 -5 30 71 c36 87 51 158 51 236 l0 60 -119 0 -118 0 -6 -102z"/>
<path d="M1022 1383 c9 -10 25 -36 36 -58 26 -50 162 -198 233 -252 66 -49
189 -118 189 -105 0 5 -27 40 -60 77 -75 85 -163 224 -185 292 -20 60 -25 63
-144 63 -79 0 -83 -1 -69 -17z"/>
<path d="M1358 1393 l-87 -4 29 -65 c16 -36 43 -84 60 -107 17 -23 45 -64 64
-92 64 -97 212 -215 270 -215 15 0 14 4 -7 33 -73 97 -138 266 -155 397 l-7
55 -40 1 c-22 0 -79 -1 -127 -3z"/>
<path d="M2563 1393 c-56 -2 -95 -8 -101 -16 -5 -7 -17 -37 -27 -67 -10 -30
-27 -71 -38 -90 -31 -52 -126 -180 -166 -224 -20 -21 -31 -37 -26 -35 6 2 48
23 95 46 94 46 206 147 288 258 46 63 88 136 75 133 -5 -1 -49 -4 -100 -5z"/>
<path d="M1585 1348 c12 -77 77 -258 114 -318 43 -72 87 -120 108 -120 14 0
15 14 10 113 -4 61 -7 169 -7 240 l0 127 -116 0 -116 0 7 -42z"/>
<path d="M1870 1151 c0 -257 2 -268 47 -218 36 40 95 140 118 202 30 80 68
235 60 243 -4 4 -56 9 -116 10 l-109 4 0 -241z"/>
<path d="M2155 1363 c-35 -175 -99 -351 -152 -413 -14 -17 -22 -34 -19 -38 4
-3 37 9 74 28 77 40 170 128 231 218 44 65 111 197 111 219 0 10 -29 13 -120
13 l-120 0 -5 -27z"/>
<path d="M851 2764 c-22 -28 -19 -49 11 -65 17 -9 25 -7 46 14 24 25 25 27 8
51 -21 33 -39 33 -65 0z"/>
<path d="M2770 2755 c-19 -23 -4 -64 26 -71 44 -11 83 43 52 74 -17 17 -63 15
-78 -3z"/>
<path d="M3044 2576 c-92 -92 19 -231 136 -171 39 20 60 53 60 92 0 72 -43
113 -121 113 -33 0 -47 -6 -75 -34z m119 -63 c13 -28 4 -38 -40 -46 -41 -8
-60 18 -38 50 20 29 64 27 78 -4z"/>
<path d="M587 2492 c-22 -24 -21 -65 1 -85 25 -22 44 -21 70 3 27 26 28 40 1
74 -24 30 -49 33 -72 8z m53 -67 c0 -3 -9 -5 -20 -5 -11 0 -20 7 -20 15 0 13
4 14 20 5 11 -6 20 -13 20 -15z"/>
<path d="M3140 2293 c0 -10 -7 -166 -15 -348 -15 -334 -27 -453 -51 -491 -12
-20 -11 -22 33 -28 25 -3 49 -4 53 -1 5 3 11 36 14 73 4 37 11 96 16 132 5 36
11 202 12 370 l3 305 -32 3 c-26 3 -33 0 -33 -15z"/>
<path d="M624 2164 c-16 -24 -18 -53 -17 -276 1 -136 4 -261 8 -277 4 -20 14
-30 30 -34 14 -2 27 -2 30 1 7 7 4 406 -4 516 -7 97 -18 114 -47 70z"/>
<path d="M2994 2068 c3 -35 8 -151 12 -258 5 -146 10 -203 22 -225 l15 -30 9
25 c14 37 22 277 13 423 l-7 127 -35 0 -35 0 6 -62z"/>
<path d="M448 1913 c-3 -196 10 -415 26 -431 29 -28 46 170 46 530 l0 108 -34
0 -35 0 -3 -207z"/>
<path d="M3285 2011 c-15 -17 -17 -37 -14 -148 4 -114 7 -132 28 -166 30 -49
40 -39 57 52 12 64 12 77 -6 147 -11 43 -20 85 -20 94 0 10 -6 23 -13 29 -11
8 -18 6 -32 -8z"/>
<path d="M341 1918 c-18 -50 -19 -96 -3 -157 9 -36 22 -66 28 -68 19 -6 36
100 28 177 -6 60 -9 70 -26 70 -10 0 -22 -10 -27 -22z"/>
<path d="M3430 1867 c-63 -22 -48 -77 21 -77 43 0 45 2 53 53 5 34 4 37 -17
36 -12 0 -38 -5 -57 -12z"/>
<path d="M110 1836 l0 -31 88 0 87 0 0 30 0 30 -87 1 -88 2 0 -32z"/>
<path d="M542 1374 c-36 -25 -54 -68 -41 -101 17 -45 39 -63 77 -63 101 0 150
105 73 157 -40 27 -78 29 -109 7z m68 -54 c21 -40 -9 -77 -38 -48 -21 21 -7
68 20 68 4 0 12 -9 18 -20z"/>
<path d="M3105 1335 c-65 -23 -79 -57 -49 -121 34 -71 119 -82 168 -23 45 53
27 117 -40 145 -18 8 -35 14 -36 14 -2 -1 -21 -7 -43 -15z m65 -65 c12 -7 12
-13 4 -27 -14 -23 -41 -28 -60 -12 -13 10 -12 14 2 30 19 21 32 23 54 9z"/>
<path d="M852 1020 c-12 -12 -22 -27 -22 -35 0 -15 47 -75 59 -75 4 0 6 25 3
56 -4 43 -2 55 8 49 7 -4 10 -23 8 -46 -4 -40 2 -48 20 -26 23 28 23 55 1 76
-29 26 -49 27 -77 1z"/>
<path d="M2796 1023 c4 -10 6 -37 5 -60 -2 -48 8 -54 39 -21 27 29 25 62 -5
82 -32 21 -49 21 -39 -1z"/>
<path d="M2735 1010 c-9 -15 5 -57 26 -76 18 -17 19 -16 19 34 0 45 -3 52 -19
52 -11 0 -22 -4 -26 -10z"/>
<path d="M615 625 c-45 -16 -101 -71 -111 -110 -11 -46 5 -94 46 -135 57 -57
113 -63 223 -21 26 10 27 14 27 76 l0 66 -62 -3 c-60 -3 -63 -4 -63 -28 0 -20
5 -25 23 -23 31 4 32 -42 1 -50 -78 -21 -148 57 -113 124 27 52 112 75 136 36
10 -16 63 4 63 23 0 17 -79 60 -110 60 -11 -1 -38 -7 -60 -15z"/>
<path d="M973 633 l-103 -4 0 -134 c0 -73 -3 -140 -6 -149 -5 -13 11 -15 110
-18 l115 -3 -1 38 0 37 -84 0 c-82 0 -83 0 -75 23 7 18 17 22 62 25 36 2 58 8
67 19 26 35 15 43 -58 43 -72 0 -79 5 -64 44 5 12 21 16 75 16 l69 0 0 35 c0
19 -1 34 -2 33 -2 -1 -49 -4 -105 -5z"/>
<path d="M1235 621 c-64 -29 -95 -72 -95 -134 0 -142 158 -209 270 -115 94 79
73 191 -47 252 -41 21 -78 20 -128 -3z m148 -92 c24 -30 21 -62 -8 -97 -33
-39 -74 -48 -118 -27 -77 36 -73 118 7 159 26 13 34 13 65 0 20 -8 44 -24 54
-35z"/>
<path d="M1532 484 c2 -123 6 -153 16 -149 8 3 23 5 35 5 21 0 22 4 19 87 l-2
88 31 -35 c18 -19 54 -59 80 -87 34 -38 55 -53 73 -53 l26 0 0 145 0 145 -34
0 -34 0 5 -82 c4 -75 3 -81 -11 -65 -8 10 -42 47 -75 81 -45 48 -69 65 -96 69
l-36 6 3 -155z"/>
<path d="M2144 631 c-2 -2 -4 -17 -4 -33 0 -26 2 -28 44 -28 l43 0 7 -77 c3
-42 6 -96 6 -120 0 -41 1 -43 30 -43 l30 0 0 115 c0 111 1 115 23 120 12 3 32
4 44 3 12 -2 22 0 22 5 1 4 1 19 1 35 l0 27 -121 0 c-66 0 -123 -2 -125 -4z"/>
<path d="M2442 521 c3 -117 4 -121 32 -150 59 -62 133 -62 192 0 28 29 29 35
34 142 3 62 5 113 5 114 0 0 -16 3 -35 5 l-35 3 -3 -100 c-2 -87 -5 -102 -23
-117 -27 -23 -62 -23 -80 -2 -9 11 -16 54 -19 118 l-5 101 -33 3 -34 3 4 -120z"/>
<path d="M3080 485 l0 -150 110 0 110 0 0 33 0 32 -80 0 c-78 0 -80 1 -80 25
0 23 3 24 68 27 64 3 67 4 67 28 0 24 -3 25 -67 28 -68 3 -68 3 -68 32 l0 30
80 0 80 0 0 29 0 30 -110 3 -110 3 0 -150z"/>
<path d="M1972 613 c-17 -33 -110 -248 -114 -262 -2 -9 8 -14 34 -15 33 -2 38
1 43 26 6 27 9 28 71 28 60 0 64 -1 79 -30 12 -23 22 -30 46 -30 37 0 38 -6
-36 170 -50 119 -54 125 -83 128 -22 2 -33 -2 -40 -15z m56 -108 c20 -44 15
-55 -23 -55 -19 0 -35 2 -35 5 0 11 34 75 40 75 4 0 12 -11 18 -25z"/>
<path d="M2770 482 l0 -148 35 -1 c35 -1 35 -1 35 43 0 33 4 44 16 44 27 0 51
-18 73 -55 17 -30 26 -35 56 -35 42 0 46 17 10 50 -32 30 -32 50 1 81 22 21
25 30 21 69 -4 33 -13 51 -36 72 -29 26 -37 28 -121 28 l-90 0 0 -148z m172
72 c10 -7 10 -52 1 -57 -5 -3 -29 -8 -55 -11 l-48 -7 0 40 c0 22 5 42 13 45
12 5 76 -2 89 -10z"/>
</g>
</svg>
